<?xml version="1.0" standalone="no"?>
<!DOCTYPE svg PUBLIC "-//W3C//DTD SVG 20010904//EN"
 "http://www.w3.org/TR/2001/REC-SVG-20010904/DTD/svg10.dtd">
<svg version="1.0" xmlns="http://www.w3.org/2000/svg"
 width="224.000000pt" height="224.000000pt" viewBox="0 0 224.000000 224.000000"
 preserveAspectRatio="xMidYMid meet">
<metadata>
Created by potrace 1.11, written by Peter Selinger 2001-2013
</metadata>
<g transform="translate(0.000000,224.000000) scale(0.100000,-0.100000)"
fill="#000000" stroke="none">
<path d="M950 2223 c-129 -17 -336 -100 -463 -186 -83 -56 -233 -207 -285
-287 -63 -95 -126 -232 -158 -340 -27 -90 -28 -106 -28 -290 0 -174 2 -203 22
-270 52 -173 93 -261 177 -380 106 -150 229 -254 428 -361 80 -43 245 -87 371
-99 462 -44 893 189 1099 595 70 138 102 246 118 399 32 312 -64 618 -267 847
-63 71 -176 171 -234 207 -56 34 -163 89 -190 97 -14 4 -38 13 -55 20 -84 34
-173 48 -335 50 -91 2 -181 1 -200 -2z m385 -283 c163 -46 274 -111 389 -228
96 -98 138 -164 196 -307 50 -125 61 -358 23 -497 -72 -258 -230 -449 -461
-555 -373 -173 -796 -67 -1048 262 -185 241 -217 602 -78 885 27 55 102 160
153 213 49 51 172 141 231 168 67 31 115 50 142 54 15 3 51 12 80 20 79 22
270 14 373 -15z"/>
<path d="M763 1521 c-64 -40 -83 -129 -40 -192 31 -47 62 -61 125 -56 44 3 59
9 85 36 29 29 32 37 32 96 0 59 -3 67 -32 96 -42 42 -120 51 -170 20z"/>
<path d="M1335 1509 c-72 -64 -65 -167 15 -222 36 -25 120 -23 154 4 59 46 74
130 33 190 -29 43 -60 59 -119 59 -39 0 -54 -6 -83 -31z"/>
<path d="M715 1026 c-16 -7 -41 -25 -54 -39 -32 -35 -34 -111 -3 -154 40 -56
169 -168 231 -201 150 -81 365 -82 536 -2 103 48 249 183 260 242 14 74 -53
158 -126 158 -52 0 -71 -10 -148 -83 -83 -76 -126 -95 -239 -103 -82 -6 -93
-5 -146 19 -34 16 -85 53 -124 90 -95 91 -122 102 -187 73z"/>
</g>
</svg>
